<svg height="512" viewBox="0 0 512 512" width="512" xmlns="http://www.w3.org/2000/svg"><g><g fill="#57a4ff"><path d="m269.33 328 2.67-32h-32l2.67 32h-44.71l36.57-67.07c8.85-17.69 34.09-17.69 42.94 0l36.57 67.07z"/><path d="m373.63 437.27-42.14-77.27-17.45-32-36.57-67.07c-8.85-17.69-34.09-17.69-42.94 0l-36.57 67.07-17.45 32-42.14 77.27a24 24 0 0 0 21.46 34.73h192.34a24 24 0 0 0 21.46-34.73zm-133.63-141.27h32l-2.67 32-5.33 64h-16l-5.33-64zm32 152h-32v-32h32z"/><path d="m496 88a15.979 15.979 0 0 1 -16 16h-448a16 16 0 1 1 0-32h448a16 16 0 0 1 16 16z"/><path d="m197.96 328-17.45 32h-148.51a16 16 0 1 1 0-32z"/><path d="m496 344a15.979 15.979 0 0 1 -16 16h-148.51l-17.45-32h165.96a16 16 0 0 1 16 16z"/></g><g fill="#004fac"><path d="m240.027 392.665a8 8 0 0 0 7.973 7.335h16a8 8 0 0 0 7.973-7.335l8-96a8 8 0 0 0 -7.973-8.665h-32a8 8 0 0 0 -7.973 8.665zm23.279-88.665-6.667 80h-1.278l-6.667-80z"/><path d="m272 408h-32a8 8 0 0 0 -8 8v32a8 8 0 0 0 8 8h32a8 8 0 0 0 8-8v-32a8 8 0 0 0 -8-8zm-8 32h-16v-16h16z"/><path d="m480 320v-208a24 24 0 0 0 0-48h-48v-8a24.032 24.032 0 0 0 -24-24h-48a24.032 24.032 0 0 0 -24 24v8h-160v-8a24.032 24.032 0 0 0 -24-24h-48a24.032 24.032 0 0 0 -24 24v8h-48a24 24 0 0 0 0 48v208a24 24 0 0 0 0 48h135.03l-35.69 65.44c-.04.08-.09.16-.13.25a32 32 0 0 0 28.62 46.31h192.34a32 32 0 0 0 28.62-46.31c-.04-.09-.09-.17-.13-.25l-35.69-65.44h135.03a24 24 0 0 0 0-48zm-128-264a8.011 8.011 0 0 1 8-8h48a8.011 8.011 0 0 1 8 8v8h-64zm-256 0a8.011 8.011 0 0 1 8-8h48a8.011 8.011 0 0 1 8 8v8h-64zm-72 32a8.011 8.011 0 0 1 8-8h448a8 8 0 0 1 0 16h-448a8.011 8.011 0 0 1 -8-8zm440 24v208h-145.21l-34.24-62.78a32 32 0 0 0 -57.1 0l-34.24 62.78h-145.21v-208zm-432 240a8 8 0 1 1 0-16h152.48l-8.72 16zm334.54 88.96a16 16 0 0 1 -14.37 23.04h-192.34a16 16 0 0 1 -14.37-23.04l42.03-77.05c.03-.06.07-.13.1-.19l17.37-31.84c.02-.04.04-.09.06-.13l36.54-66.99c.04-.08.09-.16.13-.25a16 16 0 0 1 28.62 0c.04.09.09.17.13.25l36.54 66.99c.02.04.04.09.06.13l17.37 31.84c.03.06.07.13.1.19zm119.13-91.31a7.957 7.957 0 0 1 -5.67 2.35h-143.76l-8.72-16h152.48a8 8 0 0 1 5.67 13.65z"/><path d="m136 120h-72a8 8 0 0 0 0 16h72a8 8 0 0 0 0-16z"/><path d="m88 144h-24a8 8 0 0 0 0 16h24a8 8 0 0 0 0-16z"/><path d="m384 312h64a8 8 0 0 0 0-16h-64a8 8 0 0 0 0 16z"/><path d="m416 288h32a8 8 0 0 0 0-16h-32a8 8 0 0 0 0 16z"/></g></g></svg>